# xmcd
#
# Track frame offsets:
#	150
#	14086
#	29546
#	49328
#	66593
#	81679
#	100885
#	117096
#	134059
#	151494
#	170083
#	189289
# Disc length: 2751 seconds
# Revision: 1
# Processed by: cddbd v1.5.2PL0 Copyright (c) Steve Scherf et al.
#
# Submitted via: libkcddb 0.31
#
DISCID=b60abd0c
DTITLE=Miranda Lambert - Kerosene
DYEAR=2005
DGENRE=Red Dirt
TTITLE0=Miranda Lambert - Kerosene
TTITLE1=Miranda Lambert - What About Georgia?
TTITLE2=Miranda Lambert - Greyhound Bound for Nowhere
TTITLE3=Miranda Lambert - New Strings
TTITLE4=Miranda Lambert - I Can't Be Bothered
TTITLE5=Miranda Lambert - Bring Me Down
TTITLE6=Miranda Lambert - Me and Charlie Talking
TTITLE7=Miranda Lambert - I Wanna Die
TTITLE8=Miranda Lambert - Love is Looking for You
TTITLE9=Miranda Lambert - Mama, I'm Alright
TTITLE10=Miranda Lambert - There's a Wall
TTITLE11=Miranda Lambert - Love Your Memory
EXTD=
EXTT0=
EXTT1=
EXTT2=
EXTT3=
EXTT4=
EXTT5=
EXTT6=
EXTT7=
EXTT8=
EXTT9=
EXTT10=
EXTT11=
PLAYORDER=
